<mxfile host="app.diagrams.net" modified="2023-09-20T03:42:52.994Z" agent="Mozilla/5.0 (Windows NT 10.0; Win64; x64) AppleWebKit/537.36 (KHTML, like Gecko) Chrome/117.0.0.0 Safari/537.36 Edg/117.0.2045.31" version="21.6.9" etag="-74YD4wauRHC3sLGa2OP" type="github">
  <diagram name="Page-1" id="jX6Zc4_kLUi0QPHzIW7b">
    <mxGraphModel>
      <root>
        <mxCell id="0" />
        <mxCell id="1" parent="0" />
      </root>
    </mxGraphModel>
  </diagram>
</mxfile>
